<?xml version="1.0" standalone="yes"?>

<svg version="1.1" viewBox="0.0 0.0 960.0 720.0" fill="none" stroke="none" stroke-linecap="square" stroke-miterlimit="10" xmlns="http://www.w3.org/2000/svg" xmlns:xlink="http://www.w3.org/1999/xlink"><clipPath id="p.0"><path d="m0 0l960.0 0l0 720.0l-960.0 0l0 -720.0z" clip-rule="nonzero"></path></clipPath><g clip-path="url(#p.0)"><path fill="#000000" fill-opacity="0.0" d="m0 0l960.0 0l0 720.0l-960.0 0z" fill-rule="nonzero"></path><path fill="#1abc9c" d="m352.0 360.0l0 0c0 -70.692444 57.307556 -128.0 128.0 -128.0l0 0c33.947693 0 66.505005 13.485672 90.50964 37.490326c24.0047 24.00467 37.490356 56.56195 37.490356 90.509674l0 0c0 70.692444 -57.307556 128.0 -128.0 128.0l0 0c-70.692444 0 -128.0 -57.307556 -128.0 -128.0z" fill-rule="nonzero"></path><path fill="#000000" fill-opacity="0.0" d="m520.546 359.40698l38.341003 0c1.5440063 0 3.0247803 0.6133423 4.116516 1.7051392c1.0917969 1.0917664 1.7051392 2.5725098 1.7051392 4.116516l0 29.107483c0 2.4414062E-4 -1.8310547E-4 4.272461E-4 -4.272461E-4 4.272461E-4l-49.983826 -4.272461E-4l0 0c-2.4414062E-4 0 -4.272461E-4 -1.8310547E-4 -4.272461E-4 -4.272461E-4l4.272461E-4 -29.107056l0 0c0 -3.21521 2.6064453 -5.8216553 5.821594 -5.8216553z" fill-rule="nonzero"></path><path stroke="#f3f3f3" stroke-width="8.0" stroke-linejoin="round" stroke-linecap="butt" d="m520.546 359.40698l38.341003 0c1.5440063 0 3.0247803 0.6133423 4.116516 1.7051392c1.0917969 1.0917664 1.7051392 2.5725098 1.7051392 4.116516l0 29.107483c0 2.4414062E-4 -1.8310547E-4 4.272461E-4 -4.272461E-4 4.272461E-4l-49.983826 -4.272461E-4l0 0c-2.4414062E-4 0 -4.272461E-4 -1.8310547E-4 -4.272461E-4 -4.272461E-4l4.272461E-4 -29.107056l0 0c0 -3.21521 2.6064453 -5.8216553 5.821594 -5.8216553z" fill-rule="nonzero"></path><path fill="#f3f3f3" d="m509.85828 407.21075l59.716553 0l0 19.433075l-59.716553 0z" fill-rule="nonzero"></path><path stroke="#f3f3f3" stroke-width="8.0" stroke-linejoin="round" stroke-linecap="butt" d="m509.85828 407.21075l59.716553 0l0 19.433075l-59.716553 0z" fill-rule="nonzero"></path><path fill="#000000" fill-opacity="0.0" d="m405.97913 359.40698l38.340973 0c1.5439758 0 3.0247498 0.6133423 4.116516 1.7051392c1.0917664 1.0917664 1.7051086 2.5725098 1.7051086 4.116516l0 29.107483c0 2.4414062E-4 -1.8310547E-4 4.272461E-4 -3.9672852E-4 4.272461E-4l-49.983856 -4.272461E-4l0 0c-2.1362305E-4 0 -3.9672852E-4 -1.8310547E-4 -3.9672852E-4 -4.272461E-4l3.9672852E-4 -29.107056l0 0c0 -3.21521 2.6064453 -5.8216553 5.8216553 -5.8216553z" fill-rule="nonzero"></path><path stroke="#f3f3f3" stroke-width="8.0" stroke-linejoin="round" stroke-linecap="butt" d="m405.97913 359.40698l38.340973 0c1.5439758 0 3.0247498 0.6133423 4.116516 1.7051392c1.0917664 1.0917664 1.7051086 2.5725098 1.7051086 4.116516l0 29.107483c0 2.4414062E-4 -1.8310547E-4 4.272461E-4 -3.9672852E-4 4.272461E-4l-49.983856 -4.272461E-4l0 0c-2.1362305E-4 0 -3.9672852E-4 -1.8310547E-4 -3.9672852E-4 -4.272461E-4l3.9672852E-4 -29.107056l0 0c0 -3.21521 2.6064453 -5.8216553 5.8216553 -5.8216553z" fill-rule="nonzero"></path><path fill="#f3f3f3" d="m395.29135 407.21075l59.716522 0l0 19.433075l-59.716522 0z" fill-rule="nonzero"></path><path stroke="#f3f3f3" stroke-width="8.0" stroke-linejoin="round" stroke-linecap="butt" d="m395.29135 407.21075l59.716522 0l0 19.433075l-59.716522 0z" fill-rule="nonzero"></path><path fill="#000000" fill-opacity="0.0" d="m460.8295 259.10776l38.341003 0c1.5439758 0 3.0247498 0.6133423 4.116516 1.7051086c1.0917664 1.0917664 1.7051086 2.5725403 1.7051086 4.116516l0 29.107513c0 2.1362305E-4 -1.8310547E-4 3.9672852E-4 -4.272461E-4 3.9672852E-4l-49.983826 -3.9672852E-4l0 0c-2.4414062E-4 0 -4.272461E-4 -1.8310547E-4 -4.272461E-4 -4.272461E-4l4.272461E-4 -29.107086l0 0c0 -3.2151794 2.6064453 -5.8216248 5.8216248 -5.8216248z" fill-rule="nonzero"></path><path stroke="#f3f3f3" stroke-width="8.0" stroke-linejoin="round" stroke-linecap="butt" d="m460.8295 259.10776l38.341003 0c1.5439758 0 3.0247498 0.6133423 4.116516 1.7051086c1.0917664 1.0917664 1.7051086 2.5725403 1.7051086 4.116516l0 29.107513c0 2.1362305E-4 -1.8310547E-4 3.9672852E-4 -4.272461E-4 3.9672852E-4l-49.983826 -3.9672852E-4l0 0c-2.4414062E-4 0 -4.272461E-4 -1.8310547E-4 -4.272461E-4 -4.272461E-4l4.272461E-4 -29.107086l0 0c0 -3.2151794 2.6064453 -5.8216248 5.8216248 -5.8216248z" fill-rule="nonzero"></path><path fill="#f3f3f3" d="m450.14172 306.91153l59.716553 0l0 19.433075l-59.716553 0z" fill-rule="nonzero"></path><path stroke="#f3f3f3" stroke-width="8.0" stroke-linejoin="round" stroke-linecap="butt" d="m450.14172 306.91153l59.716553 0l0 19.433075l-59.716553 0z" fill-rule="nonzero"></path><path fill="#000000" fill-opacity="0.0" d="m447.1076 359.41733l33.039368 -42.299225" fill-rule="nonzero"></path><path stroke="#f3f3f3" stroke-width="4.0" stroke-linejoin="round" stroke-linecap="butt" d="m447.1076 359.41733l33.039368 -42.299225" fill-rule="nonzero"></path><path fill="#000000" fill-opacity="0.0" d="m479.61942 317.39108l36.472443 43.338593" fill-rule="nonzero"></path><path stroke="#f3f3f3" stroke-width="4.0" stroke-linejoin="round" stroke-linecap="butt" d="m479.61942 317.39108l36.472443 43.338593" fill-rule="nonzero"></path><path fill="#000000" fill-opacity="0.0" d="m514.7244 376.87155l-64.566956 0" fill-rule="nonzero"></path><path stroke="#f3f3f3" stroke-width="4.0" stroke-linejoin="round" stroke-linecap="butt" d="m514.7244 376.87155l-64.566956 0" fill-rule="nonzero"></path></g></svg>

