<?xml version="1.0" standalone="yes"?>

<svg version="1.1" viewBox="0.0 0.0 960.0 720.0" fill="none" stroke="none" stroke-linecap="square" stroke-miterlimit="10" xmlns="http://www.w3.org/2000/svg" xmlns:xlink="http://www.w3.org/1999/xlink"><clipPath id="p.0"><path d="m0 0l960.0 0l0 720.0l-960.0 0l0 -720.0z" clip-rule="nonzero"></path></clipPath><g clip-path="url(#p.0)"><path fill="#000000" fill-opacity="0.0" d="m0 0l960.0 0l0 720.0l-960.0 0z" fill-rule="nonzero"></path><path fill="#2c3e50" d="m352.0 360.0l0 0c0 -70.692444 57.307556 -128.0 128.0 -128.0l0 0c33.947693 0 66.505005 13.485672 90.50964 37.490326c24.0047 24.00467 37.490356 56.56195 37.490356 90.509674l0 0c0 70.692444 -57.307556 128.0 -128.0 128.0l0 0c-70.692444 0 -128.0 -57.307556 -128.0 -128.0z" fill-rule="nonzero"></path><path fill="#f3f3f3" d="m409.68503 338.85834l49.692993 0l0 -49.692993l41.243958 0l0 49.692993l49.692963 0l0 42.283325l-49.692963 0l0 49.692993l-41.243958 0l0 -49.692993l-49.692993 0z" fill-rule="nonzero"></path></g></svg>

