<?xml version="1.0" standalone="yes"?>

<svg version="1.1" viewBox="0.0 0.0 960.0 720.0" fill="none" stroke="none" stroke-linecap="square" stroke-miterlimit="10" xmlns="http://www.w3.org/2000/svg" xmlns:xlink="http://www.w3.org/1999/xlink"><clipPath id="p.0"><path d="m0 0l960.0 0l0 720.0l-960.0 0l0 -720.0z" clip-rule="nonzero"></path></clipPath><g clip-path="url(#p.0)"><path fill="#000000" fill-opacity="0.0" d="m0 0l960.0 0l0 720.0l-960.0 0z" fill-rule="nonzero"></path><path fill="#e74c3c" d="m352.0 360.0l0 0c0 -70.692444 57.307556 -128.0 128.0 -128.0l0 0c33.947693 0 66.505005 13.485672 90.50964 37.490326c24.0047 24.00467 37.490356 56.56195 37.490356 90.509674l0 0c0 70.692444 -57.307556 128.0 -128.0 128.0l0 0c-70.692444 0 -128.0 -57.307556 -128.0 -128.0z" fill-rule="nonzero"></path><path fill="#000000" fill-opacity="0.0" d="m421.00278 274.47244l117.994415 0c2.1412964 0 4.194824 0.85061646 5.7089844 2.3647156c1.5140991 1.5140991 2.364685 3.5676575 2.364685 5.7089233l0 40.36731c0 6.1035156E-4 -4.8828125E-4 0.0010986328 -0.0010986328 0.0010986328l-134.14062 -0.0010986328l0 0c-6.1035156E-4 0 -0.0011291504 -5.187988E-4 -0.0011291504 -0.0011291504l0.0011291504 -40.36618l0 0c0 -4.458954 3.614685 -8.073639 8.073639 -8.073639z" fill-rule="nonzero"></path><path stroke="#f3f3f3" stroke-width="8.0" stroke-linejoin="round" stroke-linecap="butt" d="m421.00278 274.47244l117.994415 0c2.1412964 0 4.194824 0.85061646 5.7089844 2.3647156c1.5140991 1.5140991 2.364685 3.5676575 2.364685 5.7089233l0 40.36731c0 6.1035156E-4 -4.8828125E-4 0.0010986328 -0.0010986328 0.0010986328l-134.14062 -0.0010986328l0 0c-6.1035156E-4 0 -0.0011291504 -5.187988E-4 -0.0011291504 -0.0011291504l0.0011291504 -40.36618l0 0c0 -4.458954 3.614685 -8.073639 8.073639 -8.073639z" fill-rule="nonzero"></path><path fill="#000000" fill-opacity="0.0" d="m538.9972 445.52756l-117.994415 0c-2.1412659 0 -4.194824 -0.85061646 -5.7089233 -2.3647156c-1.5140991 -1.5140991 -2.3647156 -3.5676575 -2.3647156 -5.7089233l0 -40.36731c0 -6.1035156E-4 4.8828125E-4 -0.0010986328 0.0010986328 -0.0010986328l134.14062 0.0010986328l0 0c6.1035156E-4 0 0.0010986328 5.187988E-4 0.0010986328 0.0011291504l-0.0010986328 40.36618l0 0c0 4.458954 -3.614685 8.073639 -8.073669 8.073639z" fill-rule="nonzero"></path><path stroke="#f3f3f3" stroke-width="8.0" stroke-linejoin="round" stroke-linecap="butt" d="m538.9972 445.52756l-117.994415 0c-2.1412659 0 -4.194824 -0.85061646 -5.7089233 -2.3647156c-1.5140991 -1.5140991 -2.3647156 -3.5676575 -2.3647156 -5.7089233l0 -40.36731c0 -6.1035156E-4 4.8828125E-4 -0.0010986328 0.0010986328 -0.0010986328l134.14062 0.0010986328l0 0c6.1035156E-4 0 0.0010986328 5.187988E-4 0.0010986328 0.0011291504l-0.0010986328 40.36618l0 0c0 4.458954 -3.614685 8.073639 -8.073669 8.073639z" fill-rule="nonzero"></path><path fill="#000000" fill-opacity="0.0" d="m412.92914 335.77954l134.14172 0l0 48.440918l-134.14172 0z" fill-rule="nonzero"></path><path stroke="#f3f3f3" stroke-width="8.0" stroke-linejoin="round" stroke-linecap="butt" d="m412.92914 335.77954l134.14172 0l0 48.440918l-134.14172 0z" fill-rule="nonzero"></path><path fill="#efd050" d="m526.02625 289.5643l0 0c0 -3.0875854 2.7497559 -5.5905457 6.1417236 -5.5905457l0 0c3.3919678 0 6.1417236 2.5029602 6.1417236 5.5905457l0 0c0 3.0875854 -2.7497559 5.5905457 -6.1417236 5.5905457l0 0c-3.3919678 0 -6.1417236 -2.5029602 -6.1417236 -5.5905457z" fill-rule="nonzero"></path><path fill="#efd050" d="m526.02625 350.5643l0 0c0 -3.0875854 2.7497559 -5.5905457 6.1417236 -5.5905457l0 0c3.3919678 0 6.1417236 2.5029602 6.1417236 5.5905457l0 0c0 3.0875854 -2.7497559 5.5905457 -6.1417236 5.5905457l0 0c-3.3919678 0 -6.1417236 -2.5029602 -6.1417236 -5.5905457z" fill-rule="nonzero"></path><path fill="#efd050" d="m526.02625 411.5643l0 0c0 -3.0875854 2.7497559 -5.5905457 6.1417236 -5.5905457l0 0c3.3919678 0 6.1417236 2.5029602 6.1417236 5.5905457l0 0c0 3.0875854 -2.7497559 5.5905457 -6.1417236 5.5905457l0 0c-3.3919678 0 -6.1417236 -2.5029602 -6.1417236 -5.5905457z" fill-rule="nonzero"></path><path fill="#f3f3f3" d="m439.37796 287.87927l0 0c0 -0.35949707 0.29141235 -0.65093994 0.6509094 -0.65093994l2.6036682 0l0 0c0.17263794 0 0.3381958 0.068603516 0.4602661 0.19067383c0.12207031 0.12207031 0.19067383 0.28762817 0.19067383 0.4602661l0 21.627289c0 0.35949707 -0.29144287 0.6509094 -0.65093994 0.6509094l-2.6036682 0c-0.35949707 0 -0.6509094 -0.29141235 -0.6509094 -0.6509094z" fill-rule="nonzero"></path><path stroke="#f3f3f3" stroke-width="2.0" stroke-linejoin="round" stroke-linecap="butt" d="m439.37796 287.87927l0 0c0 -0.35949707 0.29141235 -0.65093994 0.6509094 -0.65093994l2.6036682 0l0 0c0.17263794 0 0.3381958 0.068603516 0.4602661 0.19067383c0.12207031 0.12207031 0.19067383 0.28762817 0.19067383 0.4602661l0 21.627289c0 0.35949707 -0.29144287 0.6509094 -0.65093994 0.6509094l-2.6036682 0c-0.35949707 0 -0.6509094 -0.29141235 -0.6509094 -0.6509094z" fill-rule="nonzero"></path><path fill="#f3f3f3" d="m453.70078 287.87927l0 0c0 -0.35949707 0.29144287 -0.65093994 0.65093994 -0.65093994l2.6036377 0l0 0c0.17263794 0 0.33822632 0.068603516 0.46029663 0.19067383c0.12207031 0.12207031 0.19064331 0.28762817 0.19064331 0.4602661l0 21.627289c0 0.35949707 -0.29141235 0.6509094 -0.65093994 0.6509094l-2.6036377 0c-0.35949707 0 -0.65093994 -0.29141235 -0.65093994 -0.6509094z" fill-rule="nonzero"></path><path stroke="#f3f3f3" stroke-width="2.0" stroke-linejoin="round" stroke-linecap="butt" d="m453.70078 287.87927l0 0c0 -0.35949707 0.29144287 -0.65093994 0.65093994 -0.65093994l2.6036377 0l0 0c0.17263794 0 0.33822632 0.068603516 0.46029663 0.19067383c0.12207031 0.12207031 0.19064331 0.28762817 0.19064331 0.4602661l0 21.627289c0 0.35949707 -0.29141235 0.6509094 -0.65093994 0.6509094l-2.6036377 0c-0.35949707 0 -0.65093994 -0.29141235 -0.65093994 -0.6509094z" fill-rule="nonzero"></path><path fill="#f3f3f3" d="m468.02362 287.87927l0 0c0 -0.35949707 0.29144287 -0.65093994 0.65093994 -0.65093994l2.6036377 0l0 0c0.17263794 0 0.3381958 0.068603516 0.46029663 0.19067383c0.12207031 0.12207031 0.19064331 0.28762817 0.19064331 0.4602661l0 21.627289c0 0.35949707 -0.29144287 0.6509094 -0.65093994 0.6509094l-2.6036377 0c-0.35949707 0 -0.65093994 -0.29141235 -0.65093994 -0.6509094z" fill-rule="nonzero"></path><path stroke="#f3f3f3" stroke-width="2.0" stroke-linejoin="round" stroke-linecap="butt" d="m468.02362 287.87927l0 0c0 -0.35949707 0.29144287 -0.65093994 0.65093994 -0.65093994l2.6036377 0l0 0c0.17263794 0 0.3381958 0.068603516 0.46029663 0.19067383c0.12207031 0.12207031 0.19064331 0.28762817 0.19064331 0.4602661l0 21.627289c0 0.35949707 -0.29144287 0.6509094 -0.65093994 0.6509094l-2.6036377 0c-0.35949707 0 -0.65093994 -0.29141235 -0.65093994 -0.6509094z" fill-rule="nonzero"></path><path fill="#f3f3f3" d="m439.37796 349.18637l0 0c0 -0.35949707 0.29141235 -0.65093994 0.6509094 -0.65093994l2.6036682 0l0 0c0.17263794 0 0.3381958 0.068573 0.4602661 0.19064331c0.12207031 0.12210083 0.19067383 0.2876587 0.19067383 0.46029663l0 21.627258c0 0.35949707 -0.29144287 0.65093994 -0.65093994 0.65093994l-2.6036682 0c-0.35949707 0 -0.6509094 -0.29144287 -0.6509094 -0.65093994z" fill-rule="nonzero"></path><path stroke="#f3f3f3" stroke-width="2.0" stroke-linejoin="round" stroke-linecap="butt" d="m439.37796 349.18637l0 0c0 -0.35949707 0.29141235 -0.65093994 0.6509094 -0.65093994l2.6036682 0l0 0c0.17263794 0 0.3381958 0.068573 0.4602661 0.19064331c0.12207031 0.12210083 0.19067383 0.2876587 0.19067383 0.46029663l0 21.627258c0 0.35949707 -0.29144287 0.65093994 -0.65093994 0.65093994l-2.6036682 0c-0.35949707 0 -0.6509094 -0.29144287 -0.6509094 -0.65093994z" fill-rule="nonzero"></path><path fill="#f3f3f3" d="m453.70078 349.18637l0 0c0 -0.35949707 0.29144287 -0.65093994 0.65093994 -0.65093994l2.6036377 0l0 0c0.17263794 0 0.33822632 0.068573 0.46029663 0.19064331c0.12207031 0.12210083 0.19064331 0.2876587 0.19064331 0.46029663l0 21.627258c0 0.35949707 -0.29141235 0.65093994 -0.65093994 0.65093994l-2.6036377 0c-0.35949707 0 -0.65093994 -0.29144287 -0.65093994 -0.65093994z" fill-rule="nonzero"></path><path stroke="#f3f3f3" stroke-width="2.0" stroke-linejoin="round" stroke-linecap="butt" d="m453.70078 349.18637l0 0c0 -0.35949707 0.29144287 -0.65093994 0.65093994 -0.65093994l2.6036377 0l0 0c0.17263794 0 0.33822632 0.068573 0.46029663 0.19064331c0.12207031 0.12210083 0.19064331 0.2876587 0.19064331 0.46029663l0 21.627258c0 0.35949707 -0.29141235 0.65093994 -0.65093994 0.65093994l-2.6036377 0c-0.35949707 0 -0.65093994 -0.29144287 -0.65093994 -0.65093994z" fill-rule="nonzero"></path><path fill="#f3f3f3" d="m468.02362 349.18637l0 0c0 -0.35949707 0.29144287 -0.65093994 0.65093994 -0.65093994l2.6036377 0l0 0c0.17263794 0 0.3381958 0.068573 0.46029663 0.19064331c0.12207031 0.12210083 0.19064331 0.2876587 0.19064331 0.46029663l0 21.627258c0 0.35949707 -0.29144287 0.65093994 -0.65093994 0.65093994l-2.6036377 0c-0.35949707 0 -0.65093994 -0.29144287 -0.65093994 -0.65093994z" fill-rule="nonzero"></path><path stroke="#f3f3f3" stroke-width="2.0" stroke-linejoin="round" stroke-linecap="butt" d="m468.02362 349.18637l0 0c0 -0.35949707 0.29144287 -0.65093994 0.65093994 -0.65093994l2.6036377 0l0 0c0.17263794 0 0.3381958 0.068573 0.46029663 0.19064331c0.12207031 0.12210083 0.19064331 0.2876587 0.19064331 0.46029663l0 21.627258c0 0.35949707 -0.29144287 0.65093994 -0.65093994 0.65093994l-2.6036377 0c-0.35949707 0 -0.65093994 -0.29144287 -0.65093994 -0.65093994z" fill-rule="nonzero"></path><path fill="#f3f3f3" d="m439.37796 410.49344l0 0c0 -0.35949707 0.29141235 -0.6509094 0.6509094 -0.6509094l2.6036682 0l0 0c0.17263794 0 0.3381958 0.068573 0.4602661 0.19064331c0.12207031 0.12207031 0.19067383 0.28762817 0.19067383 0.4602661l0 21.627289c0 0.35949707 -0.29144287 0.65093994 -0.65093994 0.65093994l-2.6036682 0c-0.35949707 0 -0.6509094 -0.29144287 -0.6509094 -0.65093994z" fill-rule="nonzero"></path><path stroke="#f3f3f3" stroke-width="2.0" stroke-linejoin="round" stroke-linecap="butt" d="m439.37796 410.49344l0 0c0 -0.35949707 0.29141235 -0.6509094 0.6509094 -0.6509094l2.6036682 0l0 0c0.17263794 0 0.3381958 0.068573 0.4602661 0.19064331c0.12207031 0.12207031 0.19067383 0.28762817 0.19067383 0.4602661l0 21.627289c0 0.35949707 -0.29144287 0.65093994 -0.65093994 0.65093994l-2.6036682 0c-0.35949707 0 -0.6509094 -0.29144287 -0.6509094 -0.65093994z" fill-rule="nonzero"></path><path fill="#f3f3f3" d="m453.70078 410.49344l0 0c0 -0.35949707 0.29144287 -0.6509094 0.65093994 -0.6509094l2.6036377 0l0 0c0.17263794 0 0.33822632 0.068573 0.46029663 0.19064331c0.12207031 0.12207031 0.19064331 0.28762817 0.19064331 0.4602661l0 21.627289c0 0.35949707 -0.29141235 0.65093994 -0.65093994 0.65093994l-2.6036377 0c-0.35949707 0 -0.65093994 -0.29144287 -0.65093994 -0.65093994z" fill-rule="nonzero"></path><path stroke="#f3f3f3" stroke-width="2.0" stroke-linejoin="round" stroke-linecap="butt" d="m453.70078 410.49344l0 0c0 -0.35949707 0.29144287 -0.6509094 0.65093994 -0.6509094l2.6036377 0l0 0c0.17263794 0 0.33822632 0.068573 0.46029663 0.19064331c0.12207031 0.12207031 0.19064331 0.28762817 0.19064331 0.4602661l0 21.627289c0 0.35949707 -0.29141235 0.65093994 -0.65093994 0.65093994l-2.6036377 0c-0.35949707 0 -0.65093994 -0.29144287 -0.65093994 -0.65093994z" fill-rule="nonzero"></path><path fill="#f3f3f3" d="m468.02362 410.49344l0 0c0 -0.35949707 0.29144287 -0.6509094 0.65093994 -0.6509094l2.6036377 0l0 0c0.17263794 0 0.3381958 0.068573 0.46029663 0.19064331c0.12207031 0.12207031 0.19064331 0.28762817 0.19064331 0.4602661l0 21.627289c0 0.35949707 -0.29144287 0.65093994 -0.65093994 0.65093994l-2.6036377 0c-0.35949707 0 -0.65093994 -0.29144287 -0.65093994 -0.65093994z" fill-rule="nonzero"></path><path stroke="#f3f3f3" stroke-width="2.0" stroke-linejoin="round" stroke-linecap="butt" d="m468.02362 410.49344l0 0c0 -0.35949707 0.29144287 -0.6509094 0.65093994 -0.6509094l2.6036377 0l0 0c0.17263794 0 0.3381958 0.068573 0.46029663 0.19064331c0.12207031 0.12207031 0.19064331 0.28762817 0.19064331 0.4602661l0 21.627289c0 0.35949707 -0.29144287 0.65093994 -0.65093994 0.65093994l-2.6036377 0c-0.35949707 0 -0.65093994 -0.29144287 -0.65093994 -0.65093994z" fill-rule="nonzero"></path></g></svg>

