<?xml version="1.0" standalone="yes"?>

<svg version="1.1" viewBox="0.0 0.0 960.0 720.0" fill="none" stroke="none" stroke-linecap="square" stroke-miterlimit="10" xmlns="http://www.w3.org/2000/svg" xmlns:xlink="http://www.w3.org/1999/xlink"><clipPath id="p.0"><path d="m0 0l960.0 0l0 720.0l-960.0 0l0 -720.0z" clip-rule="nonzero"></path></clipPath><g clip-path="url(#p.0)"><path fill="#000000" fill-opacity="0.0" d="m0 0l960.0 0l0 720.0l-960.0 0z" fill-rule="nonzero"></path><path fill="#2ecc71" d="m352.0 360.0l0 0c0 -70.692444 57.307556 -128.0 128.0 -128.0l0 0c33.947693 0 66.505005 13.485672 90.50964 37.490326c24.0047 24.00467 37.490356 56.56195 37.490356 90.509674l0 0c0 70.692444 -57.307556 128.0 -128.0 128.0l0 0c-70.692444 0 -128.0 -57.307556 -128.0 -128.0z" fill-rule="nonzero"></path><path fill="#000000" fill-opacity="0.0" d="m410.22046 306.56738l0 0c0 -12.846313 10.414001 -23.260284 23.260315 -23.260284l93.03845 0l0 0c6.1690063 0 12.085388 2.4506226 16.44751 6.8127747c4.3621826 4.362152 6.812805 10.278503 6.812805 16.44751l0 106.865234c0 12.846313 -10.414001 23.260284 -23.260315 23.260284l-93.03845 0c-12.846313 0 -23.260315 -10.413971 -23.260315 -23.260284z" fill-rule="nonzero"></path><path stroke="#f3f3f3" stroke-width="8.0" stroke-linejoin="round" stroke-linecap="butt" d="m410.22046 306.56738l0 0c0 -12.846313 10.414001 -23.260284 23.260315 -23.260284l93.03845 0l0 0c6.1690063 0 12.085388 2.4506226 16.44751 6.8127747c4.3621826 4.362152 6.812805 10.278503 6.812805 16.44751l0 106.865234c0 12.846313 -10.414001 23.260284 -23.260315 23.260284l-93.03845 0c-12.846313 0 -23.260315 -10.413971 -23.260315 -23.260284z" fill-rule="nonzero"></path><path fill="#f3f3f3" d="m435.6063 360.0l0 0c0 -23.674316 19.875732 -42.86615 44.393707 -42.86615l0 0c11.773956 0 23.065643 4.5162354 31.391083 12.555206c8.325409 8.038971 13.002594 18.942139 13.002594 30.310944l0 0c0 23.674316 -19.875702 42.86615 -44.393677 42.86615l0 0c-24.517975 0 -44.393707 -19.191833 -44.393707 -42.86615zm31.611206 0c0 6.2159424 5.722931 11.254944 12.782501 11.254944c7.0595703 0 12.782501 -5.0390015 12.782501 -11.254944c0 -6.2159424 -5.722931 -11.254944 -12.782501 -11.254944l0 0c-7.0595703 0 -12.782501 5.0390015 -12.782501 11.254944z" fill-rule="nonzero"></path></g></svg>

